<svg xmlns="http://www.w3.org/2000/svg" version="1.1" xmlns:xlink="http://www.w3.org/1999/xlink" xmlns:svgjs="http://svgjs.dev/svgjs" width="1000" height="760" viewBox="0 0 1000 760"><g transform="matrix(1,0,0,1,-0.6051647229250534,0.17308532692419476)"><svg viewBox="0 0 396 301" data-background-color="#97978d" preserveAspectRatio="xMidYMid meet" height="760" width="1000" xmlns="http://www.w3.org/2000/svg" xmlns:xlink="http://www.w3.org/1999/xlink"><g id="tight-bounds" transform="matrix(1,0,0,1,0.24035476972176184,-0.06855089921603508)"><svg viewBox="0 0 395.52 301.1356268421225" height="301.1356268421225" width="395.52"><g><svg viewBox="0 0 395.52 301.1356268421225" height="301.1356268421225" width="395.52"><g transform="matrix(1,0,0,1,0,155.0808933056136)"><svg viewBox="0 0 395.52 146.05473353650888" height="146.05473353650888" width="395.52"><g id="textblocktransform"><svg viewBox="0 0 395.52 146.05473353650888" height="146.05473353650888" width="395.52" id="textblock"><g><svg viewBox="0 0 395.52 146.05473353650888" height="146.05473353650888" width="395.52"><g transform="matrix(1,0,0,1,0,0)"><svg width="395.52" viewBox="-0.28478240966796875 -18.102209091186523 121.29181671142578 44.789756774902344" height="146.05473353650888" data-palette-color="#ffffff"><path d="M25.712-12.753c1.494 0.574 2.736 1.447 3.728 2.621 0.988 1.165 1.629 2.479 1.925 3.943 0.295 1.463 0.174 2.895-0.364 4.295v0c-0.717 1.867-1.773 3.25-3.169 4.149-1.395 0.9-3.11 1.255-5.144 1.067v0l-0.09 0.233c1.7 0.967 2.879 2.349 3.539 4.145 0.66 1.796 0.586 3.746-0.222 5.849v0c-0.645 1.68-1.622 3.015-2.931 4.005-1.306 0.984-2.77 1.578-4.392 1.784-1.619 0.199-3.179 0.011-4.678-0.565v0l-14.199-5.453 12.069-31.422zM23.23-9.025l-8.523-3.273-3.571 9.298 8.523 3.273c1.22 0.469 2.472 0.443 3.758-0.078 1.288-0.527 2.184-1.446 2.688-2.759v0c0.492-1.282 0.457-2.556-0.106-3.823-0.563-1.266-1.486-2.146-2.769-2.638zM18.55 4.528l-8.981-3.449-3.797 9.886 8.981 3.449c1.375 0.528 2.726 0.497 4.052-0.093 1.335-0.594 2.267-1.579 2.796-2.954v0c0.526-1.369 0.492-2.721-0.103-4.056-0.59-1.327-1.573-2.254-2.948-2.783zM37.395-9.713l21.875 3.006-1.22 4.244-16.485-2.266-1.349 9.818 14.93 2.052-0.595 4.329-14.93-2.051-1.448 10.54 16.772 2.305 0.089 4.424-22.221-3.054zM61.716-7.578l22.01-1.764-0.279 4.406-16.587 1.33 0.792 9.878 15.022-1.204 0.349 4.356-15.022 1.204 0.851 10.606 16.876-1.352 1.037 4.3-22.359 1.793zM99.246-15.081c2.837-0.913 5.381-0.994 7.634-0.242 2.252 0.752 3.755 2.296 4.506 4.632v0c0.672 2.088 0.688 4.04 0.048 5.857-0.632 1.821-1.707 3.148-3.225 3.98v0l0.076 0.238c1.688 0.108 3.249 0.736 4.684 1.886 1.437 1.155 2.486 2.761 3.148 4.816v0c0.552 1.713 1.06 2.975 1.524 3.786 0.472 0.814 0.918 1.34 1.337 1.576 0.421 0.243 0.958 0.364 1.609 0.364v0l0.42 1.304c-0.595 0.5-1.283 0.876-2.064 1.127v0c-1.491 0.48-2.798 0.414-3.919-0.198-1.13-0.617-2.092-2.156-2.885-4.618v0c-0.811-2.519-1.966-4.322-3.464-5.409-1.503-1.078-3.031-1.367-4.587-0.866v0l-8.128 2.618 4.542 14.107-4.578 1.474-10.318-32.04zM100.633-10.937l-9.109 2.934 3.099 9.623 9.109-2.934c1.339-0.431 2.376-1.266 3.112-2.504 0.738-1.232 0.891-2.518 0.46-3.857v0l-0.061-0.19c-0.441-1.371-1.271-2.347-2.487-2.929-1.225-0.586-2.599-0.634-4.123-0.143z" opacity="1" transform="matrix(1,0,0,1,0,0)" fill="#ffffff" class="wordmark-text-0" data-fill-palette-color="primary" id="text-0"></path></svg></g></svg></g></svg></g></svg></g><g transform="matrix(1,0,0,1,127.92018558125673,0)"><svg viewBox="0 0 139.67962883748652 146.05473353650888" height="146.05473353650888" width="139.67962883748652"><g><svg xmlns="http://www.w3.org/2000/svg" xmlns:xlink="http://www.w3.org/1999/xlink" version="1.1" x="0" y="0" viewBox="2.7019999027252197 0.7719999551773071 84.59500122070312 88.45599365234375" enable-background="new 0 0 90 90" xml:space="preserve" height="146.05473353650888" width="139.67962883748652" class="icon-icon-0" data-fill-palette-color="accent" id="icon-0"><path d="M87.266 25.646l0.012-0.014-12.242-7.609V0.772H64.482V17.88l-7.066 4.488-6.909-4.297V0.825H39.952v17.105l-7.197 4.576-7.132-4.436V0.825H15.069v17.105L3.008 25.587H2.702v63.641h84.595V25.646H87.266zM76.75 53.88H62.667V31.532l6.979-4.434 7.104 4.408V53.88zM13.256 31.583l6.981-4.436 7.078 4.4V53.88h-14.06V31.583zM37.861 31.759l7.258-4.611 6.994 4.348V53.88H37.861V31.759zM13.256 78.681V64.429H76.75v14.252H13.256z" fill="#ffffff" data-fill-palette-color="accent"></path></svg></g></svg></g><g></g></svg></g><defs></defs></svg><rect width="395.52" height="301.1356268421225" fill="none" stroke="none" visibility="hidden"></rect></g></svg></g></svg>