<?xml version="1.0" encoding="UTF-8"?>
<svg id="SVGDoc" width="184" height="183" xmlns="http://www.w3.org/2000/svg" version="1.1" xmlns:xlink="http://www.w3.org/1999/xlink" xmlns:avocode="https://avocode.com/" viewBox="0 0 184 183"><defs></defs><desc>Generated with Avocode.</desc><g><g><title>Polygon</title><path d="M92.19717,4.09058v0l16.58455,21.89207v0l24.87674,-11.69109v0l4.49298,27.07863v0l27.47011,1.18828v0l-8.62796,26.06106v0l23.77029,13.79585v0l-19.77221,19.07301v0l14.62503,23.24295v0l-26.38693,7.71618v0l2.12937,27.36473v0l-26.95676,-5.40829v0l-10.85415,25.21801v0l-21.35107,-17.29441v0l-21.35107,17.29441v0l-10.85415,-25.21801v0l-26.95676,5.40829v0l2.12937,-27.36473v0l-26.38701,-7.71618v0l14.62503,-23.24295v0l-19.77221,-19.07301v0l23.77038,-13.79585v0l-8.62796,-26.06106v0l27.47011,-1.18828v0l4.49289,-27.07863v0l24.87682,11.69109v0z" fill-opacity="0" fill="#ffffff" stroke-dashoffset="0" stroke-dasharray="" stroke-linejoin="miter" stroke-linecap="butt" stroke-opacity="1" stroke="#ffffff" stroke-miterlimit="20" stroke-width="4"></path></g></g></svg>